<svg xmlns="http://www.w3.org/2000/svg" viewBox="0 0 554 64" width="554" height="64" role="img" aria-label="Eight of Guaca's agent characters, looking around">
  <title>The crew</title>
  <g transform="translate(0 0)" style="--char-fill:#c7d96b;--char-light:color-mix(in oklab, #c7d96b 46%, #ffffff);--char-shade:color-mix(in oklab, #c7d96b 62%, #33240f);--char-deep:color-mix(in oklab, #c7d96b 36%, #17200f);--char-white:#fdfdf5;--char-ink:#17210f"><path d="M32 14V6.8" stroke="var(--char-deep)" stroke-width="2.5" stroke-linecap="round"></path><path d="M32 13.4c-5.4 0-8.8 4.2-8.8 9 0 3.7.9 5.2-1.5 8.6-3.4 4.7-7.1 10-7.1 15.4 0 7.2 7.8 12.6 17.4 12.6s17.4-5.4 17.4-12.6c0-5.4-3.7-10.7-7.1-15.4-2.4-3.4-1.5-4.9-1.5-8.6 0-4.8-3.4-9-8.8-9z" fill="var(--char-fill)" stroke="var(--char-deep)" stroke-width="2.2" stroke-linejoin="round" stroke-linecap="round"></path><path d="M23 28.6c-3.3 5-4.7 9.8-4.5 14.6" fill="none" stroke="var(--char-light)" stroke-width="2.6" stroke-linecap="round" opacity="0.5"></path><g class="avatar__eye"><circle cx="25.8" cy="38.5" r="4.4" fill="var(--char-white)"></circle><circle class="avatar__pupil" transform="translate(1.9 0)" cx="25.8" cy="38.5" r="2.4200000000000004" fill="var(--char-ink)"></circle><circle cx="24.392" cy="36.916" r="0.9680000000000001" fill="#fff" opacity="0.95"></circle></g><g class="avatar__eye"><circle cx="38.2" cy="38.5" r="4.4" fill="var(--char-white)"></circle><circle class="avatar__pupil" transform="translate(1.9 0)" cx="38.2" cy="38.5" r="2.4200000000000004" fill="var(--char-ink)"></circle><circle cx="36.792" cy="36.916" r="0.9680000000000001" fill="#fff" opacity="0.95"></circle></g><path d="M26.94 47.08q5.06 4.300999999999999 10.12 0" stroke="var(--char-ink)" stroke-width="2.0240000000000005" fill="none" stroke-linecap="round"></path></g>
  <g transform="translate(70 0)" style="--char-fill:#d9534f;--char-light:color-mix(in oklab, #d9534f 46%, #ffffff);--char-shade:color-mix(in oklab, #d9534f 62%, #33240f);--char-deep:color-mix(in oklab, #d9534f 36%, #17200f);--char-white:#fdfdf5;--char-ink:#17210f"><path d="M32 18.8c11.2 0 19.4 6.4 19.4 18.2 0 12.8-8.6 21.6-19.4 21.6S12.6 49.8 12.6 37c0-11.8 8.2-18.2 19.4-18.2z" fill="var(--char-fill)" stroke="var(--char-deep)" stroke-width="2.2" stroke-linejoin="round" stroke-linecap="round"></path><path d="M20.8 27.6c-3.2 3.4-4.6 6.8-4.6 10.2" fill="none" stroke="var(--char-light)" stroke-width="2.6" stroke-linecap="round" opacity="0.5"></path><path d="M32 19.4V10.8" stroke="var(--char-deep)" stroke-width="2.4" stroke-linecap="round"></path><path d="M32 19.8 20.6 14.2l3.3 8.1zM32 19.8 43.4 14.2l-3.3 8.1zM32 19.8l-7.3-7.3-.4 8.5zM32 19.8l7.3-7.3.4 8.5z" fill="var(--char-shade)" stroke="var(--char-deep)" stroke-width="1.4" stroke-linejoin="round"></path><g class="avatar__eye"><circle cx="25.4" cy="37.2" r="4.6" fill="var(--char-white)"></circle><circle class="avatar__pupil" transform="translate(-1.9 0)" cx="25.4" cy="37.2" r="2.53" fill="var(--char-ink)"></circle><circle cx="23.927999999999997" cy="35.544000000000004" r="1.012" fill="#fff" opacity="0.95"></circle></g><g class="avatar__eye"><circle cx="38.6" cy="37.2" r="4.6" fill="var(--char-white)"></circle><circle class="avatar__pupil" transform="translate(-1.9 0)" cx="38.6" cy="37.2" r="2.53" fill="var(--char-ink)"></circle><circle cx="37.128" cy="35.544000000000004" r="1.012" fill="#fff" opacity="0.95"></circle></g><path d="M26.71 46.17q5.289999999999999 4.496499999999999 10.579999999999998 0" stroke="var(--char-ink)" stroke-width="2.116" fill="none" stroke-linecap="round"></path></g>
  <g transform="translate(140 0)" style="--char-fill:#6faa5c;--char-light:color-mix(in oklab, #6faa5c 46%, #ffffff);--char-shade:color-mix(in oklab, #6faa5c 62%, #33240f);--char-deep:color-mix(in oklab, #6faa5c 36%, #17200f);--char-white:#fdfdf5;--char-ink:#17210f"><path d="M32 16.6V9.6" stroke="var(--char-deep)" stroke-width="2.2" stroke-linecap="round"></path><path d="M33 11.4c4.6-3.4 9.4-2.6 9.4-2.6S39.2 14.4 33 11.4z" fill="var(--char-shade)" stroke="var(--char-deep)" stroke-width="1.4" stroke-linejoin="round"></path><path d="M32 16.2C41.6 16.2 49.4 25.6 49.4 37.4S41.6 58.6 32 58.6 14.6 49.2 14.6 37.4 22.4 16.2 32 16.2z" fill="var(--char-fill)" stroke="var(--char-deep)" stroke-width="2.2" stroke-linejoin="round" stroke-linecap="round"></path><path d="M21.2 26.8c-3.1 3.8-4.6 7.7-4.6 11.8" fill="none" stroke="var(--char-light)" stroke-width="2.6" stroke-linecap="round" opacity="0.5"></path><g class="avatar__eye"><circle cx="25.6" cy="34.4" r="4.6" fill="var(--char-white)"></circle><circle class="avatar__pupil" transform="translate(0 -1.9)" cx="25.6" cy="34.4" r="2.53" fill="var(--char-ink)"></circle><circle cx="24.128" cy="32.744" r="1.012" fill="#fff" opacity="0.95"></circle></g><g class="avatar__eye"><circle cx="38.4" cy="34.4" r="4.6" fill="var(--char-white)"></circle><circle class="avatar__pupil" transform="translate(0 -1.9)" cx="38.4" cy="34.4" r="2.53" fill="var(--char-ink)"></circle><circle cx="36.928" cy="32.744" r="1.012" fill="#fff" opacity="0.95"></circle></g><path d="M26.71 41.783h10.579999999999998a5.289999999999999 5.289999999999999 0 01-10.579999999999998 0z" fill="var(--char-ink)"></path></g>
  <g transform="translate(210 0)" style="--char-fill:#e2674a;--char-light:color-mix(in oklab, #e2674a 46%, #ffffff);--char-shade:color-mix(in oklab, #e2674a 62%, #33240f);--char-deep:color-mix(in oklab, #e2674a 36%, #17200f);--char-white:#fdfdf5;--char-ink:#17210f"><path d="M27 18c-4.4-5-10.2-5.4-10.2-5.4s1 5.8 6.4 7.9z" fill="var(--char-shade)" stroke="var(--char-deep)" stroke-width="1.4" stroke-linejoin="round"></path><path d="M26.8 17.8c8.4-1.6 16.8 4.4 19 13.6 2.2 9.2-2.2 19.2-9.9 24.8-5.7 4.2-12.8 3.3-16.1-1.8-3.1-4.8-1.5-10.8 2.9-14.3 5.3-4.2 7.3-12.1 4.1-22.3z" fill="var(--char-fill)" stroke="var(--char-deep)" stroke-width="2.2" stroke-linejoin="round" stroke-linecap="round"></path><path d="M25.6 25.4c-1.5 5.2-1.7 9.4-.6 12.9" fill="none" stroke="var(--char-light)" stroke-width="2.6" stroke-linecap="round" opacity="0.5"></path><g class="avatar__eye"><circle cx="27.4" cy="34.6" r="4.1" fill="var(--char-white)"></circle><circle class="avatar__pupil" transform="translate(1.9 0)" cx="27.4" cy="34.6" r="2.255" fill="var(--char-ink)"></circle><circle cx="26.087999999999997" cy="33.124" r="0.9019999999999999" fill="#fff" opacity="0.95"></circle></g><g class="avatar__eye"><circle cx="38.6" cy="34.6" r="4.1" fill="var(--char-white)"></circle><circle class="avatar__pupil" transform="translate(1.9 0)" cx="38.6" cy="34.6" r="2.255" fill="var(--char-ink)"></circle><circle cx="37.288000000000004" cy="33.124" r="0.9019999999999999" fill="#fff" opacity="0.95"></circle></g><path d="M28.285 42.595q4.243499999999999 3.7719999999999994 8.015499999999998 -2.3574999999999995" stroke="var(--char-ink)" stroke-width="1.886" fill="none" stroke-linecap="round"></path></g>
  <g transform="translate(280 0)" style="--char-fill:#d97ea8;--char-light:color-mix(in oklab, #d97ea8 46%, #ffffff);--char-shade:color-mix(in oklab, #d97ea8 62%, #33240f);--char-deep:color-mix(in oklab, #d97ea8 36%, #17200f);--char-white:#fdfdf5;--char-ink:#17210f"><path d="M32 17.8c-2.6-6.4-1.4-11.8-1.4-11.8s4.2 5 3.4 11.8zM32 18c4-5.6 10.2-8.6 10.2-8.6s-2.4 8.4-7.6 10.4zM32 18.2c-5-4-11.6-6.2-11.6-6.2s3.4 7.6 9.2 8.4z" fill="var(--char-shade)" stroke="var(--char-deep)" stroke-width="1.4" stroke-linejoin="round"></path><path d="M32 17.4c8.8 0 15.4 6.4 15.4 14.6 0 6.8-4.2 11.8-8.4 16.4-3 3.2-5.2 7-6 9-.4 1-1.6 1-2 0-.8-2-3-5.8-6-9-4.2-4.6-8.4-9.6-8.4-16.4 0-8.2 6.6-14.6 15.4-14.6z" fill="var(--char-fill)" stroke="var(--char-deep)" stroke-width="2.2" stroke-linejoin="round" stroke-linecap="round"></path><path d="M23 25.6c-2.6 3.4-3.8 6.8-3.6 10.2" fill="none" stroke="var(--char-light)" stroke-width="2.6" stroke-linecap="round" opacity="0.5"></path><g class="avatar__eye"><circle cx="26" cy="31.2" r="4.4" fill="var(--char-white)"></circle><circle class="avatar__pupil" cx="26" cy="31.2" r="2.4200000000000004" fill="var(--char-ink)"></circle><circle cx="24.592" cy="29.616" r="0.9680000000000001" fill="#fff" opacity="0.95"></circle></g><g class="avatar__eye"><circle cx="38" cy="31.2" r="4.4" fill="var(--char-white)"></circle><circle class="avatar__pupil" cx="38" cy="31.2" r="2.4200000000000004" fill="var(--char-ink)"></circle><circle cx="36.592" cy="29.616" r="0.9680000000000001" fill="#fff" opacity="0.95"></circle></g><path d="M26.94 39.78q5.06 4.300999999999999 10.12 0" stroke="var(--char-ink)" stroke-width="2.0240000000000005" fill="none" stroke-linecap="round"></path></g>
  <g transform="translate(350 0)" style="--char-fill:#e8b84b;--char-light:color-mix(in oklab, #e8b84b 46%, #ffffff);--char-shade:color-mix(in oklab, #e8b84b 62%, #33240f);--char-deep:color-mix(in oklab, #e8b84b 36%, #17200f);--char-white:#fdfdf5;--char-ink:#17210f"><path d="M20.4 31c-4.8 2.2-7.4 8.2-7.4 8.2s5.8.9 9-3zM43.6 31c4.8 2.2 7.4 8.2 7.4 8.2s-5.8.9-9-3z" fill="var(--char-shade)" stroke="var(--char-deep)" stroke-width="1.4" stroke-linejoin="round"></path><path d="M32 14.2c8.1 0 14 6.8 14 16.6 0 12.6-6.3 27.8-14 27.8s-14-15.2-14-27.8c0-9.8 5.9-16.6 14-16.6z" fill="var(--char-fill)" stroke="var(--char-deep)" stroke-width="2.2" stroke-linejoin="round" stroke-linecap="round"></path><path d="M24.6 25c-2.4 5.2-3 10.2-2.2 14.2" fill="none" stroke="var(--char-light)" stroke-width="2.6" stroke-linecap="round" opacity="0.5"></path><g fill="var(--char-deep)" opacity="0.2"><circle cx="27" cy="46" r="1.5"></circle><circle cx="32" cy="47.4" r="1.5"></circle><circle cx="37" cy="46" r="1.5"></circle><circle cx="29.4" cy="51.4" r="1.4"></circle><circle cx="34.6" cy="51.4" r="1.4"></circle><circle cx="32" cy="42" r="1.4"></circle></g><g class="avatar__eye"><circle cx="26.4" cy="32.6" r="4.2" fill="var(--char-white)"></circle><circle class="avatar__pupil" transform="translate(-1.9 0)" cx="26.4" cy="32.6" r="2.3100000000000005" fill="var(--char-ink)"></circle><circle cx="25.055999999999997" cy="31.088" r="0.924" fill="#fff" opacity="0.95"></circle></g><g class="avatar__eye"><circle cx="37.6" cy="32.6" r="4.2" fill="var(--char-white)"></circle><circle class="avatar__pupil" transform="translate(-1.9 0)" cx="37.6" cy="32.6" r="2.3100000000000005" fill="var(--char-ink)"></circle><circle cx="36.256" cy="31.088" r="0.924" fill="#fff" opacity="0.95"></circle></g><path d="M27.17 39.341h9.66a4.83 4.83 0 01-9.66 0z" fill="var(--char-ink)"></path></g>
  <g transform="translate(420 0)" style="--char-fill:#c2926b;--char-light:color-mix(in oklab, #c2926b 46%, #ffffff);--char-shade:color-mix(in oklab, #c2926b 62%, #33240f);--char-deep:color-mix(in oklab, #c2926b 36%, #17200f);--char-white:#fdfdf5;--char-ink:#17210f"><path d="M32 15.4c11.4 0 19.4 8.4 19.4 16.8 0 3.4-2.6 5.2-6 5.2H18.6c-3.4 0-6-1.8-6-5.2 0-8.4 8-16.8 19.4-16.8z M25.6 37.4h12.8c0 6 1.4 12.2 1.4 16.2 0 3.6-3.2 5.2-7.8 5.2s-7.8-1.6-7.8-5.2c0-4 1.4-10.2 1.4-16.2z" fill="var(--char-fill)" stroke="var(--char-deep)" stroke-width="2.2" stroke-linejoin="round" stroke-linecap="round"></path><path d="M21.6 24.6c-2.6 2.6-4 5.2-4.2 8" fill="none" stroke="var(--char-light)" stroke-width="2.6" stroke-linecap="round" opacity="0.5"></path><g fill="var(--char-light)" opacity="0.45"><circle cx="21.6" cy="30.6" r="2.2"></circle><circle cx="42.4" cy="30.6" r="1.9"></circle><circle cx="32" cy="19.4" r="1.7"></circle></g><g class="avatar__eye"><circle cx="26" cy="27.8" r="4.2" fill="var(--char-white)"></circle><circle class="avatar__pupil" transform="translate(0 1.9)" cx="26" cy="27.8" r="2.3100000000000005" fill="var(--char-ink)"></circle><circle cx="24.656" cy="26.288" r="0.924" fill="#fff" opacity="0.95"></circle></g><g class="avatar__eye"><circle cx="38" cy="27.8" r="4.2" fill="var(--char-white)"></circle><circle class="avatar__pupil" transform="translate(0 1.9)" cx="38" cy="27.8" r="2.3100000000000005" fill="var(--char-ink)"></circle><circle cx="36.656" cy="26.288" r="0.924" fill="#fff" opacity="0.95"></circle></g><path d="M27.17 34.2995q2.415 2.9946 4.83 0q2.415 2.9946 4.83 0" stroke="var(--char-ink)" stroke-width="1.9320000000000002" fill="none" stroke-linecap="round"></path></g>
  <g transform="translate(490 0)" style="--char-fill:#e8954b;--char-light:color-mix(in oklab, #e8954b 46%, #ffffff);--char-shade:color-mix(in oklab, #e8954b 62%, #33240f);--char-deep:color-mix(in oklab, #e8954b 36%, #17200f);--char-white:#fdfdf5;--char-ink:#17210f"><path d="M32 18.8c-2.8-7-1.4-13.6-1.4-13.6s4.4 6.2 3.4 13.6zM32 19c4.4-5.8 10.6-9.2 10.6-9.2s-2.4 8.8-7.8 10.6zM32 19.2c-5.2-4-11.8-6.4-11.8-6.4s3.4 7.8 9.2 8.6z" fill="var(--char-shade)" stroke="var(--char-deep)" stroke-width="1.4" stroke-linejoin="round"></path><path d="M32 18.6c7.5 0 12.5 4.3 12.5 9.2 0 3.6-1.8 7.8-4 12.8-2.4 5.4-4.8 10.6-5.6 14.2-.4 1.9-5.4 1.9-5.8 0-.8-3.6-3.2-8.8-5.6-14.2-2.2-5-4-9.2-4-12.8 0-4.9 5-9.2 12.5-9.2z" fill="var(--char-fill)" stroke="var(--char-deep)" stroke-width="2.2" stroke-linejoin="round" stroke-linecap="round"></path><path d="M25.8 27.4c-1.2 4.8-1 9 .3 12.6" fill="none" stroke="var(--char-light)" stroke-width="2.6" stroke-linecap="round" opacity="0.5"></path><g class="avatar__eye"><circle cx="26.4" cy="31.6" r="4.1" fill="var(--char-white)"></circle><circle class="avatar__pupil" transform="translate(1.9 0)" cx="26.4" cy="31.6" r="2.255" fill="var(--char-ink)"></circle><circle cx="25.087999999999997" cy="30.124000000000002" r="0.9019999999999999" fill="#fff" opacity="0.95"></circle></g><g class="avatar__eye"><circle cx="37.6" cy="31.6" r="4.1" fill="var(--char-white)"></circle><circle class="avatar__pupil" transform="translate(1.9 0)" cx="37.6" cy="31.6" r="2.255" fill="var(--char-ink)"></circle><circle cx="36.288000000000004" cy="30.124000000000002" r="0.9019999999999999" fill="#fff" opacity="0.95"></circle></g><path d="M27.285 39.595q4.714999999999999 4.007749999999999 9.429999999999998 0" stroke="var(--char-ink)" stroke-width="1.886" fill="none" stroke-linecap="round"></path></g>
</svg>
